# xmcd
#
# Track frame offsets: 
#        150
#        14365
#        34892
#        50362
#        66232
#        82082
#        102590
#        118035
#        133657
#        151192
#        172480
#        187907
#        204210
#        215260
#        231637
#        243505
#        262277
#        282290
#
# Disc length: 3969 seconds
#
# Revision: 0
# Processed by: cddbd v1.5.1PL0 Copyright (c) Steve Scherf et al.
# Submitted via: ExactAudioCopy v0.95a4
#
DISCID=130f7f12
DTITLE=Sylvia Tyson - The Very Best Of
DYEAR=2001
DGENRE=Country
TTITLE0=You Were On My Mind
TTITLE1=I Walk These Rails
TTITLE2=River Road
TTITLE3=Pepere's Mill (with Lucille Starr)
TTITLE4=Driftwood
TTITLE5=Gypsy Cadillac
TTITLE6=The Sound Of One Heart Breaking
TTITLE7=Denim Blue Eyes
TTITLE8=Walking On The Moon
TTITLE9=The Night The Chinese Restaurant Burned Down
TTITLE10=Diamond Love
TTITLE11=Spring Of '45
TTITLE12=Bitter Pride
TTITLE13=So Quiet Now
TTITLE14=Sleep On My Shoulder
TTITLE15=The Blind Fiddler's Waltz
TTITLE16=Last Call
TTITLE17=Sentinel Crow
EXTD=
EXTT0=
EXTT1=
EXTT2=
EXTT3=
EXTT4=
EXTT5=
EXTT6=
EXTT7=
EXTT8=
EXTT9=
EXTT10=
EXTT11=
EXTT12=
EXTT13=
EXTT14=
EXTT15=
EXTT16=
EXTT17=
PLAYORDER=
